<?xml version="1.0" encoding="UTF-8"?>
<svg id="Capa_2" data-name="Capa 2" xmlns="http://www.w3.org/2000/svg" xmlns:xlink="http://www.w3.org/1999/xlink" viewBox="0 0 197.36 78.06">
  <defs>
    <style>
      .cls-1 {
        fill: url(#linear-gradient);
      }
    </style>
    <linearGradient id="linear-gradient" x1="0" y1="39.03" x2="197.36" y2="39.03" gradientUnits="userSpaceOnUse">
      <stop offset="0" stop-color="#b38d5d"/>
      <stop offset=".19" stop-color="#8d6e3f"/>
      <stop offset=".39" stop-color="#c79d61"/>
      <stop offset=".55" stop-color="#eebc78"/>
      <stop offset=".63" stop-color="#fdc981"/>
      <stop offset=".7" stop-color="#ebba76"/>
      <stop offset=".85" stop-color="#be955c"/>
      <stop offset="1" stop-color="#8d6e3f"/>
    </linearGradient>
  </defs>
  <g id="OBJECTS">
    <path class="cls-1" d="M94.38,.64c2.38-1.16,5.38-.68,6,.95,.63,1.67-.13,5.28-1.85,8.84-.92,1.9-1.47,2.66-3.22,4.41-1.15,1.16-2.56,2.35-3.11,2.63-.96,.49-1.02,.58-1.26,2.04-.32,1.92-.98,8.45-.86,8.45,.01,0,.6-.97,1.3-2.15,1.55-2.62,3.24-4.6,4.31-5.04,1.13-.48,3.11-.42,4.17,.13,2.2,1.13,2.44,3.9,1.17,13.34-.48,3.52-.86,7.31-.85,8.39v1.98s1.51-3.03,1.51-3.03c1.81-3.66,4.04-9.24,4.91-12.27,1.28-4.44,3.61-7.92,6.14-9.14,2.11-1.01,5.33-.7,6.9,.67,.37,.33,.44,.27,.68-.56,.34-1.2,.61-2.94,1.24-7.75,.88-6.78,1.84-10.77,2.74-11.35,.53-.34,2.54-.21,2.86,.19,.4,.49,.16,6.3-.49,11.78-1.16,9.75-1.46,21.88-.66,26.53,.42,2.43,1.12,4.58,1.76,5.42q.37,.49,.86-.12c.65-.8,2.19-4,3.09-6.44,.4-1.07,1.17-2.94,1.72-4.17,.55-1.23,1.17-3.11,1.37-4.21,1.13-5.93,4.12-10.53,7.72-11.88,1.97-.74,4.8-.73,6.27,.02l1.06,.54,.53-.54c.38-.39,.81-.54,1.5-.54,1.41,0,2.19,.76,2.37,2.31,.07,.66-.16,4.21-.52,7.87-.77,7.87-.77,12.67,.02,14.7,.26,.67,.59,1.25,.75,1.3,1.04,.35,4.75-11.18,5.67-17.64,.93-6.53,1.83-8.8,3.5-8.8,1.11,0,1.78,.56,1.96,1.64,.08,.51-.02,3.47-.22,6.57-.44,6.64-.47,11.3-.1,13.29,.31,1.64,.91,3.29,1.21,3.3,.31,0,1.95-3.58,3.37-7.37,.69-1.85,1.52-3.93,1.84-4.64,.4-.9,.66-2.12,.83-4.04,.3-3.29,.84-5.57,1.41-6,.24-.18,.88-.29,1.48-.25,1.91,.12,1.93,.19,2.49,8.82,.61,9.28,.52,15.55-.26,19.07-.28,1.27-.58,2.63-.67,3.02l-.15,.71,2.18-1.17c6.11-3.3,9.87-7.15,11.76-12.04,.42-1.1,1.2-4.07,1.73-6.64,1.28-6.2,1.32-6.33,2.02-6.71,.88-.47,2.29-.14,2.58,.62,.13,.34,.23,2.36,.23,4.47,0,3.26-.1,4.19-.59,6.13-2,7.91-7.96,13.6-18.66,17.82l-2.36,.93-1.47,2.94c-3.33,6.67-8.26,12-14.71,15.93-2.62,1.59-6.4,3.19-9,3.79-2.2,.51-7.14,.49-9.17-.03-3.26-.85-5.82-2.75-6.95-5.18-.86-1.85-.89-4.82-.07-6.9,1.01-2.58,4.08-5.31,7.6-6.77,3.63-1.5,6.97-2.15,14.19-2.78,5.46-.47,7.65-.75,10.53-1.34,4.33-.89,4.1-.76,4.62-2.61,.26-.9,.59-2.25,.73-2.99,.57-2.92,.99-9.88,.62-10.26-.09-.09-.6,.74-1.12,1.83-1.53,3.17-2.93,4.3-5.34,4.29-2.45,0-3.85-1.05-5.18-3.88-.58-1.23-.65-1.29-.79-.73-.09,.34-.61,1.49-1.16,2.56-1.35,2.64-2.41,3.4-4.72,3.4-1.39,0-1.8-.1-2.66-.68-1.28-.85-2.3-2.63-2.99-5.23l-.53-2.01-.52,1.3c-1.54,3.8-3.88,5.56-6.93,5.2-2.39-.28-3.91-1.51-5.1-4.15l-.64-1.41-.56,1.55c-1.64,4.56-3.68,6.76-6.27,6.77-1.74,0-2.68-.43-3.88-1.8-1.59-1.81-2.49-4.38-3.64-10.37-.09-.48-.23-.25-.67,1.11-1.83,5.65-3.74,8.81-5.79,9.58-1.11,.42-3.25,.31-4.28-.21-1.84-.94-3.4-3.37-3.97-6.2l-.29-1.46-.77,2.31c-1.59,4.75-2.75,6.28-4.76,6.29-1.27,0-1.63-.19-2.13-1.17-1.49-2.93-2.05-6.94-1.71-12.18,.47-7.08,.56-10.46,.3-10.46-.46,0-2.71,3.03-3.81,5.14-.58,1.11-1.35,2.93-1.69,4-.77,2.48-1.41,6.67-1.32,8.73,.04,1.02-.04,1.66-.25,1.88-.43,.44-2.37,.39-2.83-.07-.2-.2-.63-1.6-.94-3.1l-.57-2.73-.31,1.04c-.54,1.81-1.95,4.33-3.13,5.6-1.48,1.6-2.62,2.11-4.75,2.12-3.12,.01-4.81-1.4-6.14-5.1-.77-2.15-.95-2.41-1.14-1.64-.31,1.25-1.85,4.29-2.6,5.14-1.06,1.2-1.89,1.6-3.37,1.6-1.64,0-2.66-.45-3.61-1.6-2.39-2.89-3.04-8.96-1.74-16.02,.78-4.19,1.09-6.88,.83-7.13-.2-.19-3.61,.46-3.89,.74-.05,.05,.01,.9,.14,1.9,.42,3.33-.49,9.65-1.98,13.7-.9,2.45-2.37,5.26-3.56,6.83-1.69,2.22-4.32,3.27-6.44,2.57-3.3-1.09-5.76-8.5-5.76-17.34v-3.68l-1.5,1.69c-.82,.92-2.42,2.62-3.52,3.73-1.99,2.01-2.01,2.04-1.67,2.71,1.26,2.43,1.7,7.06,.97,10.14-1.05,4.43-4.56,8.6-9.24,10.97-6.23,3.15-13.07,2.9-16.14-.6-2.95-3.36-1.34-7.71,4.24-11.43,.8-.54,2.82-1.77,4.49-2.75,3.61-2.11,6.49-3.93,8.1-5.11,1.34-.98,1.34-1.15,.14-3.21-2.3-3.92-6.25-6.77-10.23-7.37-.87-.13-1.46-.05-2.55,.37-.83,.32-2.01,.56-2.87,.58l-1.46,.03v10.16c0,11.09,.07,10.6-1.46,10.6-.42,0-.87-.08-1.04-.19-.36-.23-1.6-5.76-2.24-10C.79,29.99,.34,22.89,.09,10.66-.07,2.82-.06,2.72,.44,2.45c.83-.45,1.96-.32,2.57,.3,.74,.74,1.8,5.39,2.24,9.82,.15,1.57,.56,2.97,.58,1.99,.01-.77,1.51-4.93,2.44-6.78,1.66-3.31,3.54-5.35,5.56-6.03,1.27-.43,3.64-.34,4.77,.19,1.29,.59,2.64,2.04,3.32,3.55,.73,1.64,.73,4.7-.01,6.78-1.01,2.85-3.21,6.21-5.89,9.03l-.93,.97,2.34,.55c4.17,.98,7.25,2.74,10.11,5.74l1.63,1.71,4.53-4.5c3.75-3.73,4.63-4.74,5.14-5.89,.53-1.2,.74-1.43,1.56-1.67,1.37-.41,2.83,.05,3.05,.95,.09,.35,.02,1.97-.15,3.56-.45,4.19-.62,14.41-.28,16.64,.36,2.36,.94,4.19,1.58,5l.52,.65,.69-.69c3.61-3.6,6.96-13.87,6.65-20.4l-.08-1.69-1.55-.19c-3.59-.44-5.19-2.43-4-4.95,.43-.91,1.19-1.4,2.56-1.66,1.67-.31,3.95,1.22,4.85,3.26,.29,.65,.43,.74,.94,.61,1.38-.34,3.36-.59,4.75-.59,2.78,0,4.49,1.45,4.49,3.8,0,.55-.22,2.23-.5,3.76-.28,1.53-.67,4.02-.88,5.57-.63,4.68-.19,11.18,.77,11.24,.49,.03,1.9-3.14,3.54-7.95l1.69-4.95v-4.53c0-2.5,.13-6.13,.29-8.1,.16-1.97,.29-4.07,.3-4.66v-1.09s-2.66-.57-2.66-.57c-2.27-.48-3.11-.55-5.57-.43-3.1,.15-3.54,.02-3.54-.97,0-.39,.25-.72,.79-1.01,.69-.37,1.48-.43,6.25-.43h5.46l.3-1.67c.76-4.21,1.43-5.51,2.82-5.5,1.59,0,1.88,.66,1.88,4.25,0,2.57,.04,2.81,.42,2.69,.76-.24,3.8-.62,4.95-.63,.93,0,1.27,.13,1.9,.71,.9,.85,.98,1.79,.19,2.31-1.2,.79-3.94,1.61-5.81,1.75-1.06,.08-1.99,.27-2.04,.43-.36,1.06-1.14,11.51-1.24,16.67-.1,5.12-.05,6.61,.28,8.52,.55,3.15,1.95,6.07,2.91,6.07,.55,0,2.09-1.88,3.03-3.7,1.16-2.22,3.68-9.86,4.37-13.24,.27-1.31,.61-3.63,.75-5.16,.32-3.38,1.49-9.11,2.35-11.51,1.69-4.72,4.39-8.5,6.97-9.75h0Zm3.07,3.45c0-1.37-.34-1.57-1.03-.65-1.42,1.91-2.91,5.46-4.06,9.72l-.74,2.73,.88-.83c1.07-1.01,2.85-3.68,3.61-5.42,.64-1.46,1.34-4.38,1.33-5.56h0Zm-80.93,.05c-.64-.9-.89-.9-2.14,0-2.49,1.79-5.04,6.85-6.6,13.1-.58,2.31-1.1,5.58-.92,5.76,.08,.08,.95-.38,1.92-1.01,7.38-4.76,11.05-13.21,7.74-17.86h0Zm34.74,14.49c-.71-1.5-1.14-1.84-1.34-1.04-.2,.79,.34,1.89,1.1,2.27,.81,.41,.87,.12,.24-1.23h0Zm96.67,2.59c-.72-.72-1.44-1.3-1.62-1.3-.69,0-2.85,2.62-3.85,4.65-1.84,3.77-3.14,9.71-2.83,12.94,.28,2.96,1.34,5.44,2.19,5.11,.65-.25,2.25-2.96,3.04-5.13,.64-1.74,3.69-12.15,4.22-14.38,.12-.49-.09-.83-1.15-1.9h0Zm-30.63,1.04c-.44-.34-.99-.62-1.2-.62-.71,0-2.32,2.18-3.08,4.17-2.01,5.23-2.68,11.96-1.57,15.88,.19,.67,.5,1.44,.68,1.69,.32,.44,.37,.42,1.07-.56,1.48-2.04,4.16-10.14,5.97-18.01,.16-.69-.36-1.39-1.87-2.55h0ZM25.97,38.49c-.15-.86-.34-1.54-.42-1.53-.08,.01-.86,.47-1.74,1.02-.87,.55-3.23,1.87-5.24,2.94-7.04,3.74-9.66,5.88-10.35,8.47-.25,.95-.24,1.27,.13,2.22,.86,2.25,3.69,3.82,6.19,3.44,1.78-.27,4.11-1.25,5.76-2.44,4.58-3.26,6.65-8.44,5.66-14.13h0Zm143.56,18.7q.18-.6-1.09-.29c-1.48,.36-6.07,.93-9.72,1.2-9.95,.74-14.87,2.12-18.03,5.06-2.43,2.26-3.34,5.1-2.53,7.9,.22,.76,.74,1.75,1.17,2.25,3.57,4.06,9.99,3.6,17.49-1.24,3.48-2.25,6.15-4.77,8.98-8.5,1.16-1.53,3.45-5.44,3.73-6.37h0ZM39.51,8.07c-.55,.77-.53,4.56,.02,5.72,.45,.95,2.01,2.1,2.68,1.97,1.16-.22,1.91-3.78,1.2-5.65-.81-2.13-3.01-3.28-3.89-2.04h0Zm12.74,49.2c-6.78,.35-13.72,2.2-20.05,5.33-4.05,2.01-7.31,4.26-9.98,6.9-1.94,1.92-2.74,3.18-2.46,3.91,.28,.73,1.25,.37,2.94-1.1,4.13-3.58,9.05-6.04,15.81-7.89,5.25-1.44,7.52-1.71,14.47-1.71,7.64,0,7.55-.01,31.09,4.09,16.57,2.89,21.56,3.44,29.61,3.25,8.98-.21,14.34-1.32,14.6-3.04,.16-1.08-.66-1.12-4.9-.26-3.55,.72-4.33,.79-7.94,.77-8.18-.06-16.41-1.52-35.49-6.27-14.84-3.7-19.69-4.39-27.71-3.98h0Z"/>
  </g>
</svg>